<svg width="557" height="460" viewBox="0 0 557 460" fill="none" xmlns="http://www.w3.org/2000/svg">
<g filter="url(#filter0_d_358_133)">
<path fill-rule="evenodd" clip-rule="evenodd" d="M281.935 108.944L198.08 281.76L179.513 319.478C167.459 343.966 191.725 370.532 217.203 360.74L244.681 350.18V350.18C246.668 349.391 248.86 350.716 249.086 352.842L251.744 377.863C252.819 387.978 246.923 397.542 237.403 401.126L131.329 441.057C121.167 444.883 109.729 442.917 101.422 435.917L97.6609 432.747C87.3301 424.041 84.0884 409.507 89.7417 397.242L130.62 308.558L235.525 86.6977C244.671 67.3534 272.066 66.9906 281.738 86.0857C285.371 93.2577 285.444 101.714 281.935 108.944ZM305.077 344.846C306.872 359.842 322.253 369.183 336.388 363.862L374.552 349.495L452.693 319.229L511.627 294.571C529.89 286.93 530.81 261.396 513.144 252.445C507.23 249.449 500.317 249.123 494.149 251.549L382.998 295.286L319.602 320.446C309.785 324.342 303.822 334.359 305.077 344.846V344.846Z" fill="#8C52FF"/>
</g>
<path fill-rule="evenodd" clip-rule="evenodd" d="M264.489 32.0134L281.382 15.5667C289.398 7.76235 302.744 10.3844 307.212 20.6415L368.146 160.534L449.942 348.423L478.566 414.983C481.176 421.055 479.786 428.106 475.066 432.732L454.617 452.772C450.054 457.244 443.266 458.573 437.353 456.151L325.945 410.515V410.515C317.584 407.123 311.719 399.445 310.628 390.489V390.489C308.313 371.478 327.381 356.995 345.043 364.397L366.961 373.583L377.529 378.173C390.922 383.989 404.469 370.298 398.509 356.967L384.268 325.11L349.416 247.323L261.048 50.0176C258.303 43.8888 259.677 36.698 264.489 32.0134ZM247.535 337.638C246.538 328.417 240.628 320.457 232.088 316.838L83.8766 254.017L58.576 243.535C53.5141 241.438 47.7312 242.077 43.2492 245.228L23.0761 259.413C12.7487 266.674 14.5059 282.476 26.1763 287.292L148.602 337.806L212.376 364.04C230.316 371.42 249.62 356.924 247.535 337.638V337.638Z" fill="#ECE2FF"/>
<defs>
<filter id="filter0_d_358_133" x="86.986" y="70.9746" width="445.889" height="377.006" filterUnits="userSpaceOnUse" color-interpolation-filters="sRGB">
<feFlood flood-opacity="0" result="BackgroundImageFix"/>
<feColorMatrix in="SourceAlpha" type="matrix" values="0 0 0 0 0 0 0 0 0 0 0 0 0 0 0 0 0 0 127 0" result="hardAlpha"/>
<feOffset dx="4" dy="2"/>
<feGaussianBlur stdDeviation="1.5"/>
<feComposite in2="hardAlpha" operator="out"/>
<feColorMatrix type="matrix" values="0 0 0 0 0 0 0 0 0 0 0 0 0 0 0 0 0 0 0.1 0"/>
<feBlend mode="normal" in2="BackgroundImageFix" result="effect1_dropShadow_358_133"/>
<feBlend mode="normal" in="SourceGraphic" in2="effect1_dropShadow_358_133" result="shape"/>
</filter>
</defs>
</svg>
